<svg width="32" height="30" viewBox="0 0 32 30" fill="none" xmlns="http://www.w3.org/2000/svg">
<rect x="15.7894" width="1.57895" height="1.57895" fill="#090909"/>
<rect x="12.6316" y="1.57895" width="1.57895" height="1.57895" fill="#090909"/>
<rect x="14.2106" y="1.57895" width="1.57895" height="1.57895" fill="#090909"/>
<rect x="15.7894" y="1.57895" width="1.57895" height="1.57895" fill="#090909"/>
<rect x="17.3684" y="1.57895" width="1.57895" height="1.57895" fill="#090909"/>
<rect x="15.7894" y="3.1579" width="1.57895" height="1.57895" fill="#090909"/>
<rect x="15.7894" y="4.73685" width="1.57895" height="1.57895" fill="#090909"/>
<rect x="14.2106" y="6.3158" width="1.57895" height="1.57895" fill="#090909"/>
<rect x="15.7894" y="6.3158" width="1.57895" height="1.57895" fill="#090909"/>
<rect x="17.3684" y="6.3158" width="1.57895" height="1.57895" fill="#090909"/>
<rect x="11.0526" y="7.89473" width="1.57895" height="1.57895" fill="#090909"/>
<rect x="12.6316" y="7.89473" width="1.57895" height="1.57895" fill="#090909"/>
<rect x="14.2106" y="7.89473" width="1.57895" height="1.57895" fill="#090909"/>
<rect x="17.3684" y="7.89473" width="1.57895" height="1.57895" fill="#090909"/>
<rect x="18.9474" y="7.89473" width="1.57895" height="1.57895" fill="#090909"/>
<rect x="9.47375" y="9.47368" width="1.57895" height="1.57895" fill="#090909"/>
<rect x="11.0526" y="9.47368" width="1.57895" height="1.57895" fill="#090909"/>
<rect x="12.6316" y="9.47368" width="1.57895" height="1.57895" fill="#090909"/>
<rect x="15.7894" y="9.47368" width="1.57895" height="1.57895" fill="#090909"/>
<rect x="18.9474" y="9.47368" width="1.57895" height="1.57895" fill="#090909"/>
<rect x="20.5262" y="9.47368" width="1.57895" height="1.57895" fill="#090909"/>
<rect x="22.1052" y="9.47368" width="1.57895" height="1.57895" fill="#090909"/>
<rect x="7.89478" y="11.0526" width="1.57895" height="1.57895" fill="#090909"/>
<rect x="9.47375" y="11.0526" width="1.57895" height="1.57895" fill="#090909"/>
<rect x="12.6316" y="11.0526" width="1.57895" height="1.57895" fill="#090909"/>
<rect x="14.2106" y="11.0526" width="1.57895" height="1.57895" fill="#090909"/>
<rect x="15.7894" y="11.0526" width="1.57895" height="1.57895" fill="#090909"/>
<rect x="17.3684" y="11.0526" width="1.57895" height="1.57895" fill="#090909"/>
<rect x="20.5262" y="11.0526" width="1.57895" height="1.57895" fill="#090909"/>
<rect x="22.1052" y="11.0526" width="1.57895" height="1.57895" fill="#090909"/>
<rect x="23.6842" y="11.0526" width="1.57895" height="1.57895" fill="#090909"/>
<rect x="6.3158" y="12.6316" width="1.57895" height="1.57895" fill="#090909"/>
<rect x="7.89478" y="12.6316" width="1.57895" height="1.57895" fill="#090909"/>
<rect x="11.0526" y="12.6316" width="1.57895" height="1.57895" fill="#090909"/>
<rect x="12.6316" y="12.6316" width="1.57895" height="1.57895" fill="#090909"/>
<rect x="14.2106" y="12.6316" width="1.57895" height="1.57895" fill="#090909"/>
<rect x="15.7894" y="12.6316" width="1.57895" height="1.57895" fill="#090909"/>
<rect x="17.3684" y="12.6316" width="1.57895" height="1.57895" fill="#090909"/>
<rect x="18.9474" y="12.6316" width="1.57895" height="1.57895" fill="#090909"/>
<rect x="23.6842" y="12.6316" width="1.57895" height="1.57895" fill="#090909"/>
<rect x="25.2632" y="12.6316" width="1.57895" height="1.57895" fill="#090909"/>
<rect x="3.15784" y="14.2105" width="1.57895" height="1.57895" fill="#090909"/>
<rect x="4.73682" y="14.2105" width="1.57895" height="1.57895" fill="#090909"/>
<rect x="6.3158" y="14.2105" width="1.57895" height="1.57895" fill="#090909"/>
<rect x="9.47375" y="14.2105" width="1.57895" height="1.57895" fill="#090909"/>
<rect x="11.0526" y="14.2105" width="1.57895" height="1.57895" fill="#090909"/>
<rect x="12.6316" y="14.2105" width="1.57895" height="1.57895" fill="#090909"/>
<rect x="14.2106" y="14.2105" width="1.57895" height="1.57895" fill="#090909"/>
<rect x="15.7894" y="14.2105" width="1.57895" height="1.57895" fill="#090909"/>
<rect x="17.3684" y="14.2105" width="1.57895" height="1.57895" fill="#090909"/>
<rect x="18.9474" y="14.2105" width="1.57895" height="1.57895" fill="#090909"/>
<rect x="20.5262" y="14.2105" width="1.57895" height="1.57895" fill="#090909"/>
<rect x="22.1052" y="14.2105" width="1.57895" height="1.57895" fill="#090909"/>
<rect x="25.2632" y="14.2105" width="1.57895" height="1.57895" fill="#090909"/>
<rect x="26.8422" y="14.2105" width="1.57895" height="1.57895" fill="#090909"/>
<rect x="4.73682" y="15.7895" width="1.57895" height="1.57895" fill="#090909"/>
<rect x="7.89478" y="15.7895" width="1.57895" height="1.57895" fill="#090909"/>
<rect x="9.47375" y="15.7895" width="1.57895" height="1.57895" fill="#090909"/>
<rect x="11.0526" y="15.7895" width="1.57895" height="1.57895" fill="#090909"/>
<rect x="12.6316" y="15.7895" width="1.57895" height="1.57895" fill="#090909"/>
<rect x="14.2106" y="15.7895" width="1.57895" height="1.57895" fill="#090909"/>
<rect x="15.7894" y="15.7895" width="1.57895" height="1.57895" fill="#090909"/>
<rect x="17.3684" y="15.7895" width="1.57895" height="1.57895" fill="#090909"/>
<rect x="18.9474" y="15.7895" width="1.57895" height="1.57895" fill="#090909"/>
<rect x="20.5262" y="15.7895" width="1.57895" height="1.57895" fill="#090909"/>
<rect x="22.1052" y="15.7895" width="1.57895" height="1.57895" fill="#090909"/>
<rect x="23.6842" y="15.7895" width="1.57895" height="1.57895" fill="#090909"/>
<rect x="26.8422" y="15.7895" width="1.57895" height="1.57895" fill="#090909"/>
<rect x="7.89478" y="17.3684" width="1.57895" height="1.57895" fill="#090909"/>
<rect x="9.47375" y="17.3684" width="1.57895" height="1.57895" fill="#090909"/>
<rect x="11.0526" y="17.3684" width="1.57895" height="1.57895" fill="#090909"/>
<rect x="12.6316" y="17.3684" width="1.57895" height="1.57895" fill="#090909"/>
<rect x="14.2106" y="17.3684" width="1.57895" height="1.57895" fill="#090909"/>
<rect x="15.7894" y="17.3684" width="1.57895" height="1.57895" fill="#090909"/>
<rect x="17.3684" y="17.3684" width="1.57895" height="1.57895" fill="#090909"/>
<rect x="18.9474" y="17.3684" width="1.57895" height="1.57895" fill="#090909"/>
<rect x="20.5262" y="17.3684" width="1.57895" height="1.57895" fill="#090909"/>
<rect x="22.1052" y="17.3684" width="1.57895" height="1.57895" fill="#090909"/>
<rect x="23.6842" y="17.3684" width="1.57895" height="1.57895" fill="#090909"/>
<rect x="7.89478" y="18.9474" width="1.57895" height="1.57895" fill="#090909"/>
<rect x="9.47375" y="18.9474" width="1.57895" height="1.57895" fill="#090909"/>
<rect x="11.0526" y="18.9474" width="1.57895" height="1.57895" fill="#090909"/>
<rect x="12.6316" y="18.9474" width="1.57895" height="1.57895" fill="#090909"/>
<rect x="14.2106" y="18.9474" width="1.57895" height="1.57895" fill="#090909"/>
<rect x="15.7894" y="18.9474" width="1.57895" height="1.57895" fill="#090909"/>
<rect x="17.3684" y="18.9474" width="1.57895" height="1.57895" fill="#090909"/>
<rect x="18.9474" y="18.9474" width="1.57895" height="1.57895" fill="#090909"/>
<rect x="20.5262" y="18.9474" width="1.57895" height="1.57895" fill="#090909"/>
<rect x="22.1052" y="18.9474" width="1.57895" height="1.57895" fill="#090909"/>
<rect x="23.6842" y="18.9474" width="1.57895" height="1.57895" fill="#090909"/>
<rect x="3.15784" y="20.5263" width="1.57895" height="1.57895" fill="#090909"/>
<rect x="4.73682" y="20.5263" width="1.57895" height="1.57895" fill="#090909"/>
<rect x="7.89478" y="20.5263" width="1.57895" height="1.57895" fill="#090909"/>
<rect x="9.47375" y="20.5263" width="1.57895" height="1.57895" fill="#090909"/>
<rect x="11.0526" y="20.5263" width="1.57895" height="1.57895" fill="#090909"/>
<rect x="12.6316" y="20.5263" width="1.57895" height="1.57895" fill="#090909"/>
<rect x="17.3684" y="20.5263" width="1.57895" height="1.57895" fill="#090909"/>
<rect x="18.9474" y="20.5263" width="1.57895" height="1.57895" fill="#090909"/>
<rect x="20.5262" y="20.5263" width="1.57895" height="1.57895" fill="#090909"/>
<rect x="22.1052" y="20.5263" width="1.57895" height="1.57895" fill="#090909"/>
<rect x="23.6842" y="20.5263" width="1.57895" height="1.57895" fill="#090909"/>
<rect x="26.8422" y="20.5263" width="1.57895" height="1.57895" fill="#090909"/>
<rect x="1.57898" y="22.1053" width="1.57895" height="1.57895" fill="#090909"/>
<rect x="3.15784" y="22.1053" width="1.57895" height="1.57895" fill="#090909"/>
<rect x="4.73682" y="22.1053" width="1.57895" height="1.57895" fill="#090909"/>
<rect x="7.89478" y="22.1053" width="1.57895" height="1.57895" fill="#090909"/>
<rect x="9.47375" y="22.1053" width="1.57895" height="1.57895" fill="#090909"/>
<rect x="11.0526" y="22.1053" width="1.57895" height="1.57895" fill="#090909"/>
<rect x="12.6316" y="22.1053" width="1.57895" height="1.57895" fill="#090909"/>
<rect x="18.9474" y="22.1053" width="1.57895" height="1.57895" fill="#090909"/>
<rect x="20.5262" y="22.1053" width="1.57895" height="1.57895" fill="#090909"/>
<rect x="22.1052" y="22.1053" width="1.57895" height="1.57895" fill="#090909"/>
<rect x="23.6842" y="22.1053" width="1.57895" height="1.57895" fill="#090909"/>
<rect x="26.8422" y="22.1053" width="1.57895" height="1.57895" fill="#090909"/>
<rect x="28.421" y="22.1053" width="1.57895" height="1.57895" fill="#090909"/>
<rect x="30" y="22.1053" width="1.57895" height="1.57895" fill="#090909"/>
<rect y="23.6842" width="1.57895" height="1.57895" fill="#090909"/>
<rect x="1.57898" y="23.6842" width="1.57895" height="1.57895" fill="#090909"/>
<rect x="3.15784" y="23.6842" width="1.57895" height="1.57895" fill="#090909"/>
<rect x="4.73682" y="23.6842" width="1.57895" height="1.57895" fill="#090909"/>
<rect x="7.89478" y="23.6842" width="1.57895" height="1.57895" fill="#090909"/>
<rect x="9.47375" y="23.6842" width="1.57895" height="1.57895" fill="#090909"/>
<rect x="11.0526" y="23.6842" width="1.57895" height="1.57895" fill="#090909"/>
<rect x="18.9474" y="23.6842" width="1.57895" height="1.57895" fill="#090909"/>
<rect x="20.5262" y="23.6842" width="1.57895" height="1.57895" fill="#090909"/>
<rect x="22.1052" y="23.6842" width="1.57895" height="1.57895" fill="#090909"/>
<rect x="23.6842" y="23.6842" width="1.57895" height="1.57895" fill="#090909"/>
<rect x="26.8422" y="23.6842" width="1.57895" height="1.57895" fill="#090909"/>
<rect x="28.421" y="23.6842" width="1.57895" height="1.57895" fill="#090909"/>
<rect x="30" y="23.6842" width="1.57895" height="1.57895" fill="#090909"/>
<rect y="25.2632" width="1.57895" height="1.57895" fill="#090909"/>
<rect x="1.57898" y="25.2632" width="1.57895" height="1.57895" fill="#090909"/>
<rect x="3.15784" y="25.2632" width="1.57895" height="1.57895" fill="#090909"/>
<rect x="4.73682" y="25.2632" width="1.57895" height="1.57895" fill="#090909"/>
<rect x="7.89478" y="25.2632" width="1.57895" height="1.57895" fill="#090909"/>
<rect x="9.47375" y="25.2632" width="1.57895" height="1.57895" fill="#090909"/>
<rect x="11.0526" y="25.2632" width="1.57895" height="1.57895" fill="#090909"/>
<rect x="18.9474" y="25.2632" width="1.57895" height="1.57895" fill="#090909"/>
<rect x="20.5262" y="25.2632" width="1.57895" height="1.57895" fill="#090909"/>
<rect x="22.1052" y="25.2632" width="1.57895" height="1.57895" fill="#090909"/>
<rect x="23.6842" y="25.2632" width="1.57895" height="1.57895" fill="#090909"/>
<rect x="26.8422" y="25.2632" width="1.57895" height="1.57895" fill="#090909"/>
<rect x="28.421" y="25.2632" width="1.57895" height="1.57895" fill="#090909"/>
<rect x="30" y="25.2632" width="1.57895" height="1.57895" fill="#090909"/>
<rect y="26.8421" width="1.57895" height="1.57895" fill="#090909"/>
<rect x="1.57898" y="26.8421" width="1.57895" height="1.57895" fill="#090909"/>
<rect x="3.15784" y="26.8421" width="1.57895" height="1.57895" fill="#090909"/>
<rect x="4.73682" y="26.8421" width="1.57895" height="1.57895" fill="#090909"/>
<rect x="7.89478" y="26.8421" width="1.57895" height="1.57895" fill="#090909"/>
<rect x="9.47375" y="26.8421" width="1.57895" height="1.57895" fill="#090909"/>
<rect x="11.0526" y="26.8421" width="1.57895" height="1.57895" fill="#090909"/>
<rect x="18.9474" y="26.8421" width="1.57895" height="1.57895" fill="#090909"/>
<rect x="20.5262" y="26.8421" width="1.57895" height="1.57895" fill="#090909"/>
<rect x="22.1052" y="26.8421" width="1.57895" height="1.57895" fill="#090909"/>
<rect x="23.6842" y="26.8421" width="1.57895" height="1.57895" fill="#090909"/>
<rect x="26.8422" y="26.8421" width="1.57895" height="1.57895" fill="#090909"/>
<rect x="28.421" y="26.8421" width="1.57895" height="1.57895" fill="#090909"/>
<rect x="30" y="26.8421" width="1.57895" height="1.57895" fill="#090909"/>
<rect y="28.4211" width="1.57895" height="1.57895" fill="#090909"/>
<rect x="1.57898" y="28.4211" width="1.57895" height="1.57895" fill="#090909"/>
<rect x="3.15784" y="28.4211" width="1.57895" height="1.57895" fill="#090909"/>
<rect x="4.73682" y="28.4211" width="1.57895" height="1.57895" fill="#090909"/>
<rect x="7.89478" y="28.4211" width="1.57895" height="1.57895" fill="#090909"/>
<rect x="9.47375" y="28.4211" width="1.57895" height="1.57895" fill="#090909"/>
<rect x="11.0526" y="28.4211" width="1.57895" height="1.57895" fill="#090909"/>
<rect x="18.9474" y="28.4211" width="1.57895" height="1.57895" fill="#090909"/>
<rect x="20.5262" y="28.4211" width="1.57895" height="1.57895" fill="#090909"/>
<rect x="22.1052" y="28.4211" width="1.57895" height="1.57895" fill="#090909"/>
<rect x="23.6842" y="28.4211" width="1.57895" height="1.57895" fill="#090909"/>
<rect x="26.8422" y="28.4211" width="1.57895" height="1.57895" fill="#090909"/>
<rect x="28.421" y="28.4211" width="1.57895" height="1.57895" fill="#090909"/>
<rect x="30" y="28.4211" width="1.57895" height="1.57895" fill="#090909"/>
</svg>
