<svg width="87" height="87" viewBox="0 0 87 87" fill="none" xmlns="http://www.w3.org/2000/svg">
<path d="M79.0909 39.5455V47.4546H75.1364V51.4091H71.1818V55.3637H67.2273V59.3182H63.2728V63.2728H59.3182V67.2273H55.3637V71.1818H51.4091V75.1364H47.4546V79.0909H39.5455V75.1364H35.5909V71.1818H31.6364V67.2273H27.6818V63.2728H23.7273V59.3182H19.7728V55.3637H15.8182V51.4091H11.8637V47.4546H7.90912V39.5455H27.6818V7.90912H59.3182V39.5455H79.0909ZM63.2728 47.4546H51.4091V15.8182H35.5909V47.4546H23.7273V51.4091H27.6818V55.3637H31.6364V59.3182H35.5909V63.2728H39.5455V67.2273H47.4546V63.2728H51.4091V59.3182H55.3637V55.3637H59.3182V51.4091H63.2728V47.4546Z" fill="#971E32"/>
</svg>
